<svg width="59" height="59" viewBox="0 0 59 59" fill="none" xmlns="http://www.w3.org/2000/svg">
<path d="M29.5 59C45.7924 59 59 45.7924 59 29.5C59 13.2076 45.7924 0 29.5 0C13.2076 0 0 13.2076 0 29.5C0 45.7924 13.2076 59 29.5 59Z" fill="#C4C4C4"/>
<path d="M21.9026 25.954L17.5974 21.6009L28.2338 10.8461C29.2468 9.61703 30.0065 9.9926 30.2597 10.334L41.6558 21.6009L37.0974 25.954L31.0195 19.5524C29.8039 17.9136 28.8247 18.8695 28.487 19.5524L21.9026 25.954Z" fill="#4D4D4D"/>
<path d="M14.3052 33.8921L10 29.2829L14.3052 24.6737L18.8636 29.2829L14.3052 33.8921Z" fill="#4D4D4D"/>
<path d="M29.5 49L17.5974 36.9649L21.9026 32.3557L29.5 39.7816L37.0974 32.3557L41.6558 36.9649L29.5 49Z" fill="#4D4D4D"/>
<path d="M29.5 33.8921L25.1948 29.2829L29.5 24.6737L34.0584 29.2829L29.5 33.8921Z" fill="#4D4D4D"/>
<path d="M44.6948 33.8921L40.3896 29.2829L44.6948 24.6737L49 29.2829L44.6948 33.8921Z" fill="#4D4D4D"/>
</svg>
