<svg width="59" height="59" viewBox="0 0 59 59" fill="none" xmlns="http://www.w3.org/2000/svg">
<path d="M29.5 59C45.7924 59 59 45.7924 59 29.5C59 13.2076 45.7924 0 29.5 0C13.2076 0 0 13.2076 0 29.5C0 45.7924 13.2076 59 29.5 59Z" fill="#C4C4C4"/>
<path d="M14.94 34.375L10 29.5L14.94 24.625L19.62 29.5L14.94 34.375Z" fill="white"/>
<path d="M21.96 26.6776L17.28 22.3158L29.76 10L34.44 14.875L21.96 26.6776Z" fill="white"/>
<path d="M21.96 41.8158L17.28 36.9408L36.78 17.4408L41.72 22.3158L21.96 41.8158Z" fill="white"/>
<path d="M29.76 49L24.56 44.125L44.32 24.625L49 29.5L29.76 49Z" fill="white"/>
</svg>
