<svg width="100" height="100" viewBox="0 0 100 100" fill="none" xmlns="http://www.w3.org/2000/svg">
<path d="M50 100C77.6142 100 100 77.6142 100 50C100 22.3858 77.6142 0 50 0C22.3858 0 0 22.3858 0 50C0 77.6142 22.3858 100 50 100Z" fill="#5BC2C9"/>
<path d="M26.1067 58L18 50L26.1067 42L33.7867 50L26.1067 58Z" fill="white"/>
<path d="M37.6267 45.3684L29.9467 38.2105L50.4267 18L58.1067 26L37.6267 45.3684Z" fill="white"/>
<path d="M37.6267 70.2105L29.9467 62.2105L61.9467 30.2105L70.0533 38.2105L37.6267 70.2105Z" fill="white"/>
<path d="M50.4267 82L41.8933 74L74.32 42L82 50L50.4267 82Z" fill="white"/>
</svg>
