<svg width="67" height="67" viewBox="0 0 67 67" fill="none" xmlns="http://www.w3.org/2000/svg">
<path d="M66.4686 29.5784C66.3632 28.8182 65.9342 28.231 65.8439 27.5386C65.7611 26.8912 66.0095 26.1235 65.8439 25.4987C65.731 25.0922 65.3546 24.6632 65.2191 24.2417C65.1062 23.9105 65.0159 23.6395 64.903 23.3008C64.4137 21.8255 64.0449 20.4932 63.3298 19.063H63.0137C63.1943 18.3179 62.6599 17.6103 62.3889 17.0232C62.0276 16.2554 61.2599 15.5554 60.8158 14.8253C60.3867 14.1102 59.7469 13.3048 59.2426 12.6274C58.7759 11.9951 58.3093 11.6639 57.9856 10.9037H57.3684C57.4361 9.94774 56.4124 9.66172 55.7952 9.17998C55.8027 9.17998 55.2608 8.64556 55.1705 8.55523C54.8618 8.26168 54.5382 8.02834 54.2296 7.77242C53.5145 7.17778 52.8145 6.38743 52.0317 5.89064C51.4446 5.51429 50.7445 5.42396 50.1499 5.10783C50.2477 4.8218 50.1424 4.67878 49.8337 4.68631C49.7284 4.64868 49.623 4.61857 49.5176 4.58093C49.1939 4.34759 48.795 4.1293 48.4187 3.92607C47.7563 3.5723 47.0563 3.33896 46.3788 3.06046C45.1971 2.57872 43.2024 2.41313 42.2991 1.4873H40.726C40.5152 1.27654 40.3045 1.06578 40.1012 0.862549H0.531332C0.531332 1.07331 0.531332 1.28406 0.531332 1.4873C0.531332 4.62609 0.531332 7.76489 0.531332 10.9112C0.531332 13.4779 0.531332 16.0372 0.531332 18.6039C0.531332 20.3351 0.696928 21.005 2.10449 22.0588C3.32388 22.9696 4.7465 23.5944 6.0261 24.4148C10.4144 27.2074 15.3296 29.202 19.6878 32.1075C21.8631 33.5602 24.4524 34.4334 26.5976 35.8786C27.8095 36.6915 29.0364 37.4141 30.3687 38.0765C31.4752 38.6335 32.4462 39.4238 33.5075 39.9582C38.227 42.3293 42.7658 45.1595 47.3272 47.809C47.9219 48.1552 48.652 48.351 49.209 48.7499C50.0295 49.3295 49.8563 49.2843 49.209 50.0069C48.2907 51.0231 47.3573 51.7156 46.3863 52.4156C44.3465 53.8909 41.7346 54.6888 39.4765 55.8178H37.9033C37.5872 56.0286 37.2786 56.2393 36.9624 56.4426H11.2047C10.4746 55.6522 10.8886 53.4016 10.8886 52.3629C10.8886 51.0005 10.8886 49.6381 10.8886 48.2832H29.1042C29.2472 47.3649 29.5332 47.3574 28.788 46.5595C28.231 45.9649 27.5611 45.7165 26.9062 45.3025C25.7621 44.5799 24.6933 43.8799 23.4513 43.2626C21.0201 42.0508 18.7469 40.5679 16.3834 39.2582C14.0425 37.956 11.6037 36.6915 9.31544 35.3592C8.12616 34.6667 6.97452 34.0871 5.70244 33.5301C4.85188 33.1538 2.82709 32.2053 2.40558 31.3322H0.523804C0.523804 36.985 0.523804 42.6379 0.523804 48.2907C0.523804 51.0155 0.523804 53.7328 0.523804 56.4576C0.523804 59.5964 0.523804 62.7352 0.523804 65.874C0.523804 66.0848 0.523804 66.2955 0.523804 66.4988H40.7184C40.9292 66.288 41.14 66.0772 41.3432 65.874H42.9164C43.3002 64.9858 45.7766 64.6019 46.6874 64.2482C48.1251 63.6912 49.5026 63.104 50.7671 62.261C52.1295 61.3578 53.6349 60.5298 54.8468 59.4384C54.8844 59.4007 55.3662 58.7684 55.4715 58.6555C55.7275 58.3695 55.8328 58.2942 56.0963 58.0308C56.42 57.7071 57.4963 57.1275 57.3533 56.4576H57.9781C58.0834 56.2469 58.1888 56.0361 58.2942 55.8329C58.934 55.5845 59.3405 54.6285 59.8674 54.1092C60.5373 53.4393 60.7706 52.9651 61.1244 52.2274C61.7567 50.9102 62.6975 49.766 63.3223 48.4563C63.8191 47.4251 64.8428 45.852 63.947 44.6853C63.232 43.7519 61.3427 43.3304 60.334 42.7207C55.9533 40.0561 51.4747 37.6926 46.9885 35.1033C44.8132 33.8462 42.6153 32.7699 40.3948 31.4903C38.2119 30.2333 36.0667 28.8558 33.8011 27.7192C31.5655 26.6052 29.345 25.3406 27.2073 24.1062C26.0783 23.4513 25.0621 22.6158 23.9105 22.0137C22.8416 21.4567 21.6749 21.0728 20.6136 20.4932C20.019 20.1695 19.5372 19.6426 18.8899 19.319C18.363 19.0555 17.8436 18.7921 17.3167 18.5362C16.1801 17.9716 15.0586 17.4221 14.0199 16.7297C12.8758 15.9619 11.4531 15.1941 11.0391 14.0575C10.9187 13.7414 10.8585 12.9285 10.8811 12.3338C10.8886 12.0779 11.2123 12.1005 11.1972 11.7091C11.1972 11.7166 10.8961 11.0994 10.8811 10.9263H36.6312C39.1904 11.8897 41.8174 12.5446 44.1659 13.907C45.4078 14.6296 46.8154 15.2092 47.9369 16.1049C47.8993 16.0748 48.509 16.677 48.5617 16.7297C48.8703 17.0458 49.1864 17.3619 49.5026 17.6705C49.5026 17.7759 49.5026 17.8813 49.5026 17.9867C49.7133 18.0921 49.9241 18.1974 50.1273 18.3028C50.3606 18.5663 50.5789 18.7695 50.752 19.0856H37.5646C35.7957 20.847 42.0432 23.1653 43.2174 23.8503C45.5809 25.2277 47.9444 26.8461 50.4359 28.0353C52.95 29.2397 55.3361 30.858 57.8125 32.1978C60.3039 33.5376 62.69 34.7947 65.189 36.0442H66.446C66.446 34.6291 66.446 33.2215 66.446 31.8064C66.4686 31.0688 66.5665 30.2784 66.4686 29.5784Z" fill="#5BC2C9"/>
</svg>
