<svg width="100" height="100" viewBox="0 0 100 100" fill="none" xmlns="http://www.w3.org/2000/svg">
<path d="M50 100C77.6142 100 100 77.6142 100 50C100 22.3858 77.6142 0 50 0C22.3858 0 0 22.3858 0 50C0 77.6142 22.3858 100 50 100Z" fill="#5BC2C9"/>
<path d="M37.8377 44.5901L30.6623 37.3349L48.3896 19.4102C50.0779 17.3617 51.3442 17.9877 51.7662 18.5567L70.7597 37.3349L63.1623 44.5901L53.0325 33.9206C51.0065 31.1893 49.3745 32.7826 48.8117 33.9206L37.8377 44.5901Z" fill="#4D4D4D"/>
<path d="M25.1753 57.8202L18 50.1382L25.1753 42.4562L32.7727 50.1382L25.1753 57.8202Z" fill="#4D4D4D"/>
<path d="M50.5 83L30.6623 62.9415L37.8377 55.2595L50.5 67.636L63.1623 55.2595L70.7597 62.9415L50.5 83Z" fill="#4D4D4D"/>
<path d="M50.5 57.8202L43.3247 50.1382L50.5 42.4562L58.0974 50.1382L50.5 57.8202Z" fill="#4D4D4D"/>
<path d="M75.8247 57.8202L68.6493 50.1382L75.8247 42.4562L83 50.1382L75.8247 57.8202Z" fill="#4D4D4D"/>
</svg>
